<svg width="84" height="82" viewBox="0 0 84 82" fill="none" xmlns="http://www.w3.org/2000/svg">
<g id="logo" clip-path="url(#clip0_1193_734)">
<g id="Group">
<g id="Mask group">
<mask id="mask0_1193_734" style="mask-type:luminance" maskUnits="userSpaceOnUse" x="0" y="20" width="44" height="61">
<path id="clip-path" d="M0.0732422 55.5066L0.173241 20.5059L43.9932 45.4904L43.8932 80.4977L0.0732422 55.5066Z" fill="white"/>
</mask>
<g mask="url(#mask0_1193_734)">
<g id="Group_2">
<path id="Vector" d="M4.06122 22.7189C1.39456 21.2109 0.174558 21.9879 0.161224 25.4518L0.0878906 50.568C0.0878906 54.0253 1.31456 56.2182 3.96122 57.7262C6.60789 59.2343 7.85456 58.4572 7.86122 54.9999L7.89456 44.6149L4.42122 42.1389L4.38789 53.5643C4.38789 53.9594 4.22122 54.0582 3.96789 53.9199C3.83239 53.8306 3.72334 53.7073 3.65189 53.5627C3.58044 53.418 3.54915 53.2573 3.56122 53.0968L3.63456 26.9071C3.63456 26.512 3.80122 26.4067 4.04789 26.5449C4.18466 26.635 4.29491 26.7592 4.36749 26.9049C4.44007 27.0506 4.47241 27.2127 4.46122 27.3747V37.0221L7.93456 38.5104V29.9034C7.93456 26.4396 6.70789 24.2467 4.06122 22.7387" fill="#683522"/>
<path id="Vector_2" d="M13.4799 59.3398C13.3427 59.2518 13.2319 59.1289 13.1592 58.9841C13.0865 58.8393 13.0545 58.6779 13.0666 58.5167L13.1399 32.3073C13.1399 31.9122 13.3066 31.8068 13.5599 31.9517C13.6972 32.0413 13.8078 32.1654 13.8805 32.3112C13.9531 32.457 13.9851 32.6193 13.9733 32.7814L13.8933 58.9842C13.8933 59.386 13.7266 59.4847 13.4799 59.3398ZM13.5666 28.1388C10.8999 26.6308 9.67326 27.4079 9.6666 30.8717L9.59326 55.9879C9.59326 59.4452 10.8199 61.6381 13.4666 63.1461C16.1133 64.6542 17.3533 63.8771 17.3666 60.4198L17.4399 35.3036C17.4399 31.8397 16.2133 29.6468 13.5666 28.1388Z" fill="#683522"/>
<path id="Vector_3" d="M27.0401 36.0273L23.5734 34.0517L23.2867 47.2223C23.1867 51.3513 23.1201 55.3683 23.0601 59.7738L22.6134 59.517C22.5734 55.0588 22.5334 50.9562 22.4534 46.7482L22.2467 33.3076L18.7334 31.332L20.1801 66.8267L25.4001 69.8032L27.0401 36.0734" fill="#683522"/>
<path id="Vector_4" d="M34.1142 40.058L28.3676 36.7852L28.2676 71.3908L34.0142 74.6702L34.0276 70.864L31.7542 69.5667L31.7876 57.1073L33.8542 58.2861L33.8676 54.4798L31.8009 53.301L31.8342 42.567L34.1076 43.8643L34.1142 40.058Z" fill="#683522"/>
<path id="Vector_5" d="M39.1937 58.8856V46.7885L39.487 46.9531C39.6593 47.0432 39.8014 47.1807 39.8961 47.3491C39.9908 47.5174 40.0339 47.7093 40.0203 47.9014V58.7144C40.0203 59.1622 39.8537 59.261 39.4803 59.0502L39.1937 58.8856ZM39.3203 43.0283L35.767 41L35.667 75.6385L39.1403 77.6141L39.1803 62.7643L39.4737 62.929C39.646 63.019 39.7881 63.1566 39.8828 63.3249C39.9774 63.4933 40.0206 63.6851 40.007 63.8772L40.0003 74.5059C39.9414 75.7745 40.0648 77.0449 40.367 78.2792L43.9203 80.3009C43.5892 79.0573 43.4388 77.7735 43.4737 76.488V67.6177C43.4737 64.9441 42.5737 63.3372 40.887 62.0334V61.5395C42.5803 62.1058 43.4937 61.5395 43.5003 59.1161V50.3774C43.5003 46.9202 42.2737 44.7273 39.2937 43.0283" fill="#683522"/>
</g>
</g>
</g>
</g>
<g id="Group_3">
<g id="Mask group_2">
<mask id="mask1_1193_734" style="mask-type:luminance" maskUnits="userSpaceOnUse" x="1" y="0" width="82" height="46">
<path id="clip-path-2" d="M1.97998 19.7822L36.44 0L82.04 26.0118L47.5866 45.7874L1.97998 19.7822Z" fill="white"/>
</mask>
<g mask="url(#mask1_1193_734)">
<g id="Group_4">
<path id="Vector_6" d="M18.8212 14.2565L20.2812 13.4465C24.4278 11.1614 28.1145 9.12657 32.2145 6.82831L32.6545 7.07855C28.6545 9.44925 25.1145 11.5565 21.1345 13.9338L19.7278 14.7767L18.8212 14.2565ZM43.0878 3.7925L37.9412 0.855469L2.18115 19.663L5.58115 21.6386L15.0478 16.3704L16.0611 16.9499L6.92115 22.3696L10.3212 24.3451L43.0878 3.7925Z" fill="#683522"/>
<path id="Vector_7" d="M49.2795 7.32279L45.8795 5.38672L11.6128 25.0503L17.0461 28.1454L20.8195 25.9855L18.7928 24.8264L49.2795 7.32279Z" fill="#683522"/>
<path id="Vector_8" d="M25.7197 28.7762L37.9531 21.7563L38.2397 21.9143C38.5997 22.125 38.5664 22.3292 38.1264 22.5728L27.1597 28.8815C26.9939 29.0029 26.7957 29.0737 26.5897 29.0854C26.3836 29.0971 26.1786 29.0492 25.9997 28.9474L25.7197 28.7828M41.7731 19.5634L52.4397 13.4391L52.7264 13.5971C53.0864 13.8078 53.053 14.012 52.6197 14.2556L43.2197 19.6622C43.0536 19.7857 42.8541 19.8578 42.6465 19.8695C42.4389 19.8813 42.2324 19.832 42.0531 19.728L41.7731 19.57M56.2931 11.3252L52.8064 9.34961L18.5464 29.0001L22.0264 30.9757C24.9464 32.6417 27.6264 32.4903 31.0531 30.5213L39.8664 25.4638C42.4131 24.0018 42.5997 22.8758 41.2797 21.7299L41.7664 21.4533C43.8197 22.1711 45.7664 22.0658 48.1864 20.6895L55.5197 16.4749C58.9464 14.4993 59.1997 12.9715 56.2864 11.3054" fill="#683522"/>
<path id="Vector_9" d="M69.7807 19.0054L66.3741 17.0694L36.2741 34.3491C36.1334 34.4506 35.9682 34.5138 35.795 34.5322C35.6218 34.5507 35.4468 34.5239 35.2874 34.4545C35.0407 34.3162 35.0741 34.1055 35.4674 33.8882L65.5674 16.6084L62.1674 14.6328L32.6074 31.6426C29.1741 33.6182 28.9207 35.1459 31.5141 36.621C34.1074 38.0961 36.7874 37.9381 40.2207 35.9625L69.7807 19.0054Z" fill="#683522"/>
<path id="Vector_10" d="M82.0402 26.0053L77.6935 23.5293L71.8402 26.6112C67.8402 28.7053 62.6068 31.5238 58.9202 33.5455L58.5135 33.315C62.0402 31.1945 66.8935 28.1982 70.5535 25.9131L75.9535 22.5349L71.5735 20.0391L37.3335 39.729L40.4002 41.4807L48.8668 36.522C53.9335 33.552 61.9602 28.6197 64.3135 27.1446L64.7468 27.3948L41.6668 42.2051L43.4535 43.2192L69.2135 29.9433L69.6468 30.187C67.2068 31.504 58.4602 36.1137 53.3068 39.0573L44.7202 43.9436L47.7602 45.6755L82.0202 26.0053" fill="#683522"/>
</g>
</g>
</g>
</g>
<g id="Group_5">
<g id="Mask group_3">
<mask id="mask2_1193_734" style="mask-type:luminance" maskUnits="userSpaceOnUse" x="46" y="27" width="38" height="55">
<path id="clip-path-3" d="M46.0972 81.0713L46.0039 48.8825L83.8106 27.3223L83.9039 59.5111L46.0972 81.0713Z" fill="white"/>
</mask>
<g mask="url(#mask2_1193_734)">
<g id="Group_6">
<path id="Vector_11" d="M49.6366 75.5011V64.0032L49.9299 63.8386C50.3166 63.6212 50.4832 63.7069 50.4899 64.1217V74.4277C50.4994 74.6154 50.4517 74.8017 50.3531 74.9625C50.2545 75.1233 50.1094 75.2512 49.9366 75.3299L49.6432 75.5011M49.6033 60.4208V50.398L49.8966 50.2268C50.2766 50.0095 50.4432 50.0951 50.4499 50.51V59.3408C50.4622 59.5291 50.4166 59.7166 50.3191 59.8788C50.2215 60.041 50.0765 60.1703 49.9032 60.2496L49.6099 60.4208M49.6566 46.809L45.9966 48.8834L46.0899 81.0722L49.7299 78.9979C52.7699 77.2594 54.0366 75.1586 54.0299 71.9384V63.6542C54.0299 61.2637 53.0899 60.783 51.3633 61.4547V60.9937C52.2055 60.4199 52.8902 59.6482 53.3557 58.7482C53.8211 57.8481 54.0528 56.8479 54.0299 55.8374V48.9427C54.0299 45.7225 52.7432 45.0705 49.7032 46.809" fill="#683522"/>
<path id="Vector_12" d="M59.0896 61.4081V60.045C59.1629 56.1794 59.2229 52.7419 59.2696 48.9027L59.7229 48.6459C59.8029 52.4192 59.8829 55.7711 59.9829 59.5379V60.855L59.0429 61.395M62.1363 39.6636L56.8163 42.7125L55.3296 75.797L58.8829 73.7753L59.0229 64.9378L60.0829 64.332L60.2763 72.9785L63.8296 70.9502L62.1696 39.6504" fill="#683522"/>
<path id="Vector_13" d="M73.4368 33.2371L70.2502 35.0546L70.3502 42.1074C70.4235 46.243 70.8635 52.3804 71.1102 55.4624L70.6435 55.7258L68.8102 35.8712L65.1035 37.9916L65.1968 70.1805L68.3835 68.3629L68.2435 61.1191C68.1635 56.1341 67.7635 51.0634 67.5168 47.9486L67.9835 47.6852L69.8235 67.5332L73.5302 65.4193L73.4368 33.2305" fill="#683522"/>
<path id="Vector_14" d="M83.6711 27.4018L80.2044 29.3774L78.7444 42.8311L78.2911 43.088C78.5377 40.5197 78.7977 37.7671 78.7911 35.291V30.1874L75.3311 32.1762L75.4244 64.365L78.8644 62.3894L78.8244 48.8172L79.0177 47.5001L79.4377 47.2564C79.4377 49.693 79.5644 52.4522 79.8911 56.1268L80.3711 61.5136L83.8977 59.5051L81.7511 40.4078L83.6644 27.3887" fill="#683522"/>
</g>
</g>
</g>
</g>
</g>
<defs>
<clipPath id="clip0_1193_734">
<rect width="84" height="81.5652" fill="white"/>
</clipPath>
</defs>
</svg>
